<svg width="64" height="64" viewBox="0 0 64 64" fill="none" xmlns="http://www.w3.org/2000/svg">
<path d="M0 10C0 4.47715 4.47715 0 10 0H54C59.5228 0 64 4.47715 64 10V54C64 59.5228 59.5228 64 54 64H10C4.47715 64 0 59.5228 0 54V10Z" fill="#C9A962" fill-opacity="0.1"/>
<path d="M36 18.6666H24C23.2928 18.6666 22.6145 18.9476 22.1144 19.4477C21.6143 19.9478 21.3334 20.626 21.3334 21.3333V42.6666C21.3334 43.3739 21.6143 44.0521 22.1144 44.5522C22.6145 45.0523 23.2928 45.3333 24 45.3333H40C40.7073 45.3333 41.3856 45.0523 41.8857 44.5522C42.3858 44.0521 42.6667 43.3739 42.6667 42.6666V25.3333L36 18.6666Z" stroke="#C9A962" stroke-width="2.66667" stroke-linecap="round" stroke-linejoin="round"/>
<path d="M34.6666 18.6666V24C34.6666 24.7072 34.9476 25.3855 35.4477 25.8856C35.9478 26.3857 36.626 26.6666 37.3333 26.6666H42.6666" stroke="#C9A962" stroke-width="2.66667" stroke-linecap="round" stroke-linejoin="round"/>
<path d="M29.3333 28H26.6666" stroke="#C9A962" stroke-width="2.66667" stroke-linecap="round" stroke-linejoin="round"/>
<path d="M37.3333 33.3334H26.6666" stroke="#C9A962" stroke-width="2.66667" stroke-linecap="round" stroke-linejoin="round"/>
<path d="M37.3333 38.6666H26.6666" stroke="#C9A962" stroke-width="2.66667" stroke-linecap="round" stroke-linejoin="round"/>
</svg>
