<svg width="64" height="64" viewBox="0 0 64 64" fill="none" xmlns="http://www.w3.org/2000/svg">
<path d="M0 10C0 4.47715 4.47715 0 10 0H54C59.5228 0 64 4.47715 64 10V54C64 59.5228 59.5228 64 54 64H10C4.47715 64 0 59.5228 0 54V10Z" fill="#C9A962" fill-opacity="0.1"/>
<path d="M37.3333 37.3334L41.3333 26.6667L45.3333 37.3334C44.1733 38.2 42.7733 38.6667 41.3333 38.6667C39.8933 38.6667 38.4933 38.2 37.3333 37.3334Z" stroke="#C9A962" stroke-width="2.66667" stroke-linecap="round" stroke-linejoin="round"/>
<path d="M18.6667 37.3334L22.6667 26.6667L26.6667 37.3334C25.5067 38.2 24.1067 38.6667 22.6667 38.6667C21.2267 38.6667 19.8267 38.2 18.6667 37.3334Z" stroke="#C9A962" stroke-width="2.66667" stroke-linecap="round" stroke-linejoin="round"/>
<path d="M25.3333 44H38.6666" stroke="#C9A962" stroke-width="2.66667" stroke-linecap="round" stroke-linejoin="round"/>
<path d="M32 20V44" stroke="#C9A962" stroke-width="2.66667" stroke-linecap="round" stroke-linejoin="round"/>
<path d="M20 25.3334H22.6667C25.3333 25.3334 29.3333 24 32 22.6667C34.6667 24 38.6667 25.3334 41.3333 25.3334H44" stroke="#C9A962" stroke-width="2.66667" stroke-linecap="round" stroke-linejoin="round"/>
</svg>
