<svg width="64" height="64" viewBox="0 0 64 64" fill="none" xmlns="http://www.w3.org/2000/svg">
<path d="M0 10C0 4.47715 4.47715 0 10 0H54C59.5228 0 64 4.47715 64 10V54C64 59.5228 59.5228 64 54 64H10C4.47715 64 0 59.5228 0 54V10Z" fill="#C9A962" fill-opacity="0.1"/>
<path d="M36 44V33.3333C36 32.9797 35.8595 32.6406 35.6095 32.3905C35.3594 32.1405 35.0203 32 34.6667 32H29.3333C28.9797 32 28.6406 32.1405 28.3905 32.3905C28.1405 32.6406 28 32.9797 28 33.3333V44" stroke="#C9A962" stroke-width="2.66667" stroke-linecap="round" stroke-linejoin="round"/>
<path d="M20 29.3333C19.9999 28.9454 20.0844 28.5622 20.2477 28.2103C20.411 27.8584 20.6491 27.5464 20.9453 27.296L30.2787 19.2973C30.76 18.8905 31.3698 18.6674 32 18.6674C32.6302 18.6674 33.24 18.8905 33.7213 19.2973L43.0547 27.296C43.3509 27.5464 43.589 27.8584 43.7523 28.2103C43.9156 28.5622 44.0001 28.9454 44 29.3333V41.3333C44 42.0406 43.719 42.7189 43.219 43.2189C42.7189 43.719 42.0406 44 41.3333 44H22.6667C21.9594 44 21.2811 43.719 20.781 43.2189C20.281 42.7189 20 42.0406 20 41.3333V29.3333Z" stroke="#C9A962" stroke-width="2.66667" stroke-linecap="round" stroke-linejoin="round"/>
</svg>
