<svg width="64" height="64" viewBox="0 0 64 64" fill="none" xmlns="http://www.w3.org/2000/svg">
<path d="M0 10C0 4.47715 4.47715 0 10 0H54C59.5228 0 64 4.47715 64 10V54C64 59.5228 59.5228 64 54 64H10C4.47715 64 0 59.5228 0 54V10Z" fill="#C9A962" fill-opacity="0.1"/>
<path d="M42.6666 33.3333C42.6666 39.9999 37.9999 43.3333 32.4533 45.2666C32.1628 45.365 31.8473 45.3603 31.5599 45.2533C25.9999 43.3333 21.3333 39.9999 21.3333 33.3333V23.9999C21.3333 23.6463 21.4737 23.3072 21.7238 23.0571C21.9738 22.8071 22.313 22.6666 22.6666 22.6666C25.3333 22.6666 28.6666 21.0666 30.9866 19.0399C31.2691 18.7986 31.6284 18.666 31.9999 18.666C32.3714 18.666 32.7308 18.7986 33.0133 19.0399C35.3466 21.0799 38.6666 22.6666 41.3333 22.6666C41.6869 22.6666 42.026 22.8071 42.2761 23.0571C42.5261 23.3072 42.6666 23.6463 42.6666 23.9999V33.3333Z" stroke="#C9A962" stroke-width="2.66667" stroke-linecap="round" stroke-linejoin="round"/>
</svg>
