<svg width="64" height="64" viewBox="0 0 64 64" fill="none" xmlns="http://www.w3.org/2000/svg">
<path d="M0 10C0 4.47715 4.47715 0 10 0H54C59.5228 0 64 4.47715 64 10V54C64 59.5228 59.5228 64 54 64H10C4.47715 64 0 59.5228 0 54V10Z" fill="#C9A962" fill-opacity="0.1"/>
<path d="M37.3333 42.6666V21.3333C37.3333 20.626 37.0523 19.9478 36.5522 19.4477C36.0521 18.9476 35.3739 18.6666 34.6666 18.6666H29.3333C28.626 18.6666 27.9478 18.9476 27.4477 19.4477C26.9476 19.9478 26.6666 20.626 26.6666 21.3333V42.6666" stroke="#C9A962" stroke-width="2.66667" stroke-linecap="round" stroke-linejoin="round"/>
<path d="M42.6666 24H21.3333C19.8605 24 18.6666 25.1939 18.6666 26.6667V40C18.6666 41.4728 19.8605 42.6667 21.3333 42.6667H42.6666C44.1394 42.6667 45.3333 41.4728 45.3333 40V26.6667C45.3333 25.1939 44.1394 24 42.6666 24Z" stroke="#C9A962" stroke-width="2.66667" stroke-linecap="round" stroke-linejoin="round"/>
</svg>
