<svg width="64" height="64" viewBox="0 0 64 64" fill="none" xmlns="http://www.w3.org/2000/svg">
<path d="M0 10C0 4.47715 4.47715 0 10 0H54C59.5228 0 64 4.47715 64 10V54C64 59.5228 59.5228 64 54 64H10C4.47715 64 0 59.5228 0 54V10Z" fill="#C9A962" fill-opacity="0.1"/>
<path d="M37.3333 44V41.3333C37.3333 39.9188 36.7714 38.5623 35.7712 37.5621C34.771 36.5619 33.4144 36 32 36H24C22.5855 36 21.2289 36.5619 20.2287 37.5621C19.2285 38.5623 18.6666 39.9188 18.6666 41.3333V44" stroke="#C9A962" stroke-width="2.66667" stroke-linecap="round" stroke-linejoin="round"/>
<path d="M28 30.6667C30.9455 30.6667 33.3333 28.2789 33.3333 25.3333C33.3333 22.3878 30.9455 20 28 20C25.0544 20 22.6666 22.3878 22.6666 25.3333C22.6666 28.2789 25.0544 30.6667 28 30.6667Z" stroke="#C9A962" stroke-width="2.66667" stroke-linecap="round" stroke-linejoin="round"/>
<path d="M45.3334 44V41.3333C45.3325 40.1516 44.9392 39.0037 44.2152 38.0698C43.4912 37.1358 42.4775 36.4688 41.3334 36.1733" stroke="#C9A962" stroke-width="2.66667" stroke-linecap="round" stroke-linejoin="round"/>
<path d="M37.3334 20.1733C38.4806 20.4671 39.4974 21.1343 40.2236 22.0698C40.9497 23.0052 41.3438 24.1558 41.3438 25.34C41.3438 26.5242 40.9497 27.6748 40.2236 28.6103C39.4974 29.5457 38.4806 30.2129 37.3334 30.5067" stroke="#C9A962" stroke-width="2.66667" stroke-linecap="round" stroke-linejoin="round"/>
</svg>
