<svg width="48" height="48" viewBox="0 0 48 48" fill="none" xmlns="http://www.w3.org/2000/svg">
<path d="M0 24C0 10.7452 10.7452 0 24 0C37.2548 0 48 10.7452 48 24C48 37.2548 37.2548 48 24 48C10.7452 48 0 37.2548 0 24Z" fill="#C9A962"/>
<path d="M34.0001 28.9201V31.9201C34.0012 32.1986 33.9441 32.4743 33.8326 32.7294C33.721 32.9846 33.5574 33.2137 33.3521 33.402C33.1469 33.5902 32.9046 33.7336 32.6408 33.8228C32.377 33.912 32.0974 33.9452 31.8201 33.9201C28.7429 33.5857 25.7871 32.5342 23.1901 30.8501C20.7739 29.3148 18.7254 27.2663 17.1901 24.8501C15.5 22.2413 14.4483 19.2711 14.1201 16.1801C14.0951 15.9036 14.1279 15.6249 14.2166 15.3617C14.3052 15.0986 14.4476 14.8568 14.6348 14.6517C14.822 14.4466 15.0499 14.2828 15.3038 14.1706C15.5578 14.0584 15.8324 14.0004 16.1101 14.0001H19.1101C19.5954 13.9953 20.0658 14.1672 20.4338 14.4836C20.8018 14.8001 21.0421 15.2395 21.1101 15.7201C21.2367 16.6802 21.4715 17.6228 21.8101 18.5301C21.9446 18.888 21.9737 19.277 21.894 19.651C21.8142 20.0249 21.6289 20.3682 21.3601 20.6401L20.0901 21.9101C21.5136 24.4136 23.5865 26.4865 26.0901 27.9101L27.3601 26.6401C27.6319 26.3712 27.9752 26.1859 28.3492 26.1062C28.7231 26.0264 29.1121 26.0556 29.4701 26.1901C30.3773 26.5286 31.32 26.7635 32.2801 26.8901C32.7658 26.9586 33.2095 27.2033 33.5266 27.5776C33.8437 27.9519 34.0122 28.4297 34.0001 28.9201Z" stroke="white" stroke-width="2" stroke-linecap="round" stroke-linejoin="round"/>
</svg>
