<svg width="56" height="56" viewBox="0 0 56 56" fill="none" xmlns="http://www.w3.org/2000/svg">
<path d="M0 10C0 4.47715 4.47715 0 10 0H46C51.5229 0 56 4.47715 56 10V46C56 51.5229 51.5228 56 46 56H10C4.47715 56 0 51.5228 0 46V10Z" fill="#C9A962" fill-opacity="0.1"/>
<path d="M36 20H20C18.8954 20 18 20.8954 18 22V34C18 35.1046 18.8954 36 20 36H36C37.1046 36 38 35.1046 38 34V22C38 20.8954 37.1046 20 36 20Z" stroke="#C9A962" stroke-width="2" stroke-linecap="round" stroke-linejoin="round"/>
<path d="M38 23L29.03 28.7C28.7213 28.8934 28.3643 28.996 28 28.996C27.6357 28.996 27.2787 28.8934 26.97 28.7L18 23" stroke="#C9A962" stroke-width="2" stroke-linecap="round" stroke-linejoin="round"/>
</svg>
