<svg width="56" height="56" viewBox="0 0 56 56" fill="none" xmlns="http://www.w3.org/2000/svg">
<path d="M0 10C0 4.47715 4.47715 0 10 0H46C51.5229 0 56 4.47715 56 10V46C56 51.5229 51.5228 56 46 56H10C4.47715 56 0 51.5228 0 46V10Z" fill="#C9A962" fill-opacity="0.1"/>
<path d="M28 38C33.5228 38 38 33.5228 38 28C38 22.4772 33.5228 18 28 18C22.4772 18 18 22.4772 18 28C18 33.5228 22.4772 38 28 38Z" stroke="#C9A962" stroke-width="2" stroke-linecap="round" stroke-linejoin="round"/>
<path d="M28 22V28L32 30" stroke="#C9A962" stroke-width="2" stroke-linecap="round" stroke-linejoin="round"/>
</svg>
