<svg width="56" height="56" viewBox="0 0 56 56" fill="none" xmlns="http://www.w3.org/2000/svg">
<path d="M0 10C0 4.47715 4.47715 0 10 0H46C51.5229 0 56 4.47715 56 10V46C56 51.5229 51.5228 56 46 56H10C4.47715 56 0 51.5228 0 46V10Z" fill="#C9A962" fill-opacity="0.1"/>
<path d="M38.0001 32.92V35.92C38.0012 36.1985 37.9441 36.4742 37.8326 36.7294C37.721 36.9845 37.5574 37.2136 37.3521 37.4019C37.1469 37.5901 36.9046 37.7335 36.6408 37.8227C36.377 37.9119 36.0974 37.9451 35.8201 37.92C32.7429 37.5856 29.7871 36.5342 27.1901 34.85C24.7739 33.3147 22.7254 31.2662 21.1901 28.85C19.5 26.2412 18.4483 23.271 18.1201 20.18C18.0951 19.9035 18.1279 19.6248 18.2166 19.3616C18.3052 19.0985 18.4476 18.8567 18.6348 18.6516C18.822 18.4466 19.0499 18.2827 19.3038 18.1705C19.5578 18.0583 19.8324 18.0003 20.1101 18H23.1101C23.5954 17.9952 24.0658 18.1671 24.4338 18.4835C24.8018 18.8 25.0421 19.2395 25.1101 19.72C25.2367 20.6801 25.4715 21.6227 25.8101 22.53C25.9446 22.8879 25.9737 23.2769 25.894 23.6509C25.8142 24.0249 25.6289 24.3681 25.3601 24.64L24.0901 25.91C25.5136 28.4136 27.5865 30.4865 30.0901 31.91L31.3601 30.64C31.6319 30.3711 31.9752 30.1859 32.3492 30.1061C32.7231 30.0263 33.1121 30.0555 33.4701 30.19C34.3773 30.5286 35.32 30.7634 36.2801 30.89C36.7658 30.9585 37.2095 31.2032 37.5266 31.5775C37.8437 31.9518 38.0122 32.4296 38.0001 32.92Z" stroke="#C9A962" stroke-width="2" stroke-linecap="round" stroke-linejoin="round"/>
</svg>
