<svg width="36" height="36" viewBox="0 0 36 36" fill="none" xmlns="http://www.w3.org/2000/svg">
<path d="M10 0.5H26C31.2467 0.5 35.5 4.7533 35.5 10V26C35.5 31.2467 31.2467 35.5 26 35.5H10C4.7533 35.5 0.5 31.2467 0.5 26V10C0.5 4.7533 4.7533 0.5 10 0.5Z" stroke="#D1D5DC"/>
<path d="M18.0001 21.3334C19.841 21.3334 21.3334 19.841 21.3334 18.0001C21.3334 16.1591 19.841 14.6667 18.0001 14.6667C16.1591 14.6667 14.6667 16.1591 14.6667 18.0001C14.6667 19.841 16.1591 21.3334 18.0001 21.3334Z" stroke="#D1D5DC" stroke-width="1.66667" stroke-linecap="round" stroke-linejoin="round"/>
<path d="M18 9.66675V11.3334" stroke="#D1D5DC" stroke-width="1.66667" stroke-linecap="round" stroke-linejoin="round"/>
<path d="M18 24.6667V26.3334" stroke="#D1D5DC" stroke-width="1.66667" stroke-linecap="round" stroke-linejoin="round"/>
<path d="M12.1084 12.1084L13.2834 13.2834" stroke="#D1D5DC" stroke-width="1.66667" stroke-linecap="round" stroke-linejoin="round"/>
<path d="M22.7166 22.7166L23.8916 23.8916" stroke="#D1D5DC" stroke-width="1.66667" stroke-linecap="round" stroke-linejoin="round"/>
<path d="M9.66675 18H11.3334" stroke="#D1D5DC" stroke-width="1.66667" stroke-linecap="round" stroke-linejoin="round"/>
<path d="M24.6667 18H26.3334" stroke="#D1D5DC" stroke-width="1.66667" stroke-linecap="round" stroke-linejoin="round"/>
<path d="M13.2834 22.7166L12.1084 23.8916" stroke="#D1D5DC" stroke-width="1.66667" stroke-linecap="round" stroke-linejoin="round"/>
<path d="M23.8916 12.1084L22.7166 13.2834" stroke="#D1D5DC" stroke-width="1.66667" stroke-linecap="round" stroke-linejoin="round"/>
</svg>
