<svg width="151" height="48" viewBox="0 0 151 48" fill="none" xmlns="http://www.w3.org/2000/svg">
<path d="M40 0C44.4183 5.15405e-07 48 3.58172 48 8V40C48 44.4183 44.4183 48 40 48H8C3.58172 48 1.28855e-07 44.4183 0 40V8C5.15422e-07 3.58172 3.58172 1.28851e-07 8 0H40ZM23.9863 10C22.1542 10 20.6295 11.1759 20.042 12.7998H10V15.5996H13.5801L10.0977 24.9102C10.0418 25.0641 10.0137 25.2325 10.0137 25.4004C10.0139 28.4942 12.5176 31 15.6084 31C18.6992 31 21.2029 28.4942 21.2031 25.4004C21.2031 25.2325 21.175 25.0641 21.1191 24.9102L17.6367 15.5996H20.0703C20.4899 16.7896 21.4264 17.7144 22.6152 18.1484V35.2002H10V38H37.9717V35.2002H25.3848V18.1484C26.5736 17.7284 27.4961 16.7896 27.9297 15.5996H30.3633L26.8809 24.9102C26.825 25.0641 26.7969 25.2325 26.7969 25.4004C26.7971 28.4942 29.3008 31 32.3916 31C35.4824 31 37.9861 28.4942 37.9863 25.4004C37.9863 25.2325 37.9582 25.0641 37.9023 24.9102L34.4199 15.5996H38V12.7998H27.9297C27.3562 11.176 25.8182 10.0001 23.9863 10ZM18.2939 25.4004H12.8955L15.5947 18.1904L18.2939 25.4004ZM35.0771 25.4004H29.6787L32.3779 18.1904L35.0771 25.4004ZM23.9863 12.7998C24.7554 12.8 25.3848 13.4303 25.3848 14.2002C25.3847 14.97 24.7554 15.5994 23.9863 15.5996C23.2172 15.5996 22.588 14.9701 22.5879 14.2002C22.5879 13.4302 23.2171 12.7998 23.9863 12.7998Z" fill="#C9A962"/>
<path d="M71.4648 19.3411L71.7871 19.4094L70.6543 23.0032H60.4004V22.6418H60.8984C61.4583 22.6418 61.8587 22.4596 62.0996 22.095C62.2363 21.8866 62.3047 21.4049 62.3047 20.6497V12.1047C62.3047 11.2779 62.2135 10.7603 62.0312 10.552C61.7773 10.2655 61.3997 10.1223 60.8984 10.1223H60.4004V9.76099H66.3965V10.1223C65.6934 10.1158 65.1986 10.1809 64.9121 10.3176C64.6322 10.4543 64.4401 10.6269 64.3359 10.8352C64.2318 11.0435 64.1797 11.5416 64.1797 12.3293V20.6497C64.1797 21.19 64.2318 21.5611 64.3359 21.7629C64.4141 21.8997 64.5345 22.0006 64.6973 22.0657C64.86 22.1308 65.3678 22.1633 66.2207 22.1633H67.1875C68.2031 22.1633 68.916 22.0885 69.3262 21.9387C69.7363 21.789 70.1107 21.5253 70.4492 21.1477C70.7878 20.7636 71.1263 20.1614 71.4648 19.3411ZM77.9199 21.7141C77.002 22.4237 76.4258 22.8339 76.1914 22.9446C75.8398 23.1073 75.4655 23.1887 75.0684 23.1887C74.4499 23.1887 73.9388 22.9771 73.5352 22.554C73.138 22.1308 72.9395 21.5741 72.9395 20.884C72.9395 20.4478 73.0371 20.0702 73.2324 19.7512C73.4993 19.3085 73.9616 18.8918 74.6191 18.5012C75.2832 18.1106 76.3835 17.6353 77.9199 17.0754V16.7239C77.9199 15.8319 77.7767 15.22 77.4902 14.8879C77.2103 14.5559 76.8001 14.3899 76.2598 14.3899C75.8496 14.3899 75.5241 14.5006 75.2832 14.7219C75.0358 14.9433 74.9121 15.1972 74.9121 15.4836L74.9316 16.05C74.9316 16.3495 74.8535 16.5806 74.6973 16.7434C74.5475 16.9062 74.349 16.9875 74.1016 16.9875C73.8607 16.9875 73.6621 16.9029 73.5059 16.7336C73.3561 16.5644 73.2812 16.3333 73.2812 16.0403C73.2812 15.4804 73.5677 14.9661 74.1406 14.4973C74.7135 14.0286 75.5176 13.7942 76.5527 13.7942C77.347 13.7942 77.998 13.9277 78.5059 14.1946C78.89 14.3964 79.1732 14.7122 79.3555 15.1418C79.4727 15.4218 79.5312 15.9947 79.5312 16.8606V19.8977C79.5312 20.7506 79.5475 21.2747 79.5801 21.47C79.6126 21.6588 79.6647 21.7857 79.7363 21.8508C79.8145 21.9159 79.9023 21.9485 80 21.9485C80.1042 21.9485 80.1953 21.9257 80.2734 21.8801C80.4102 21.7955 80.6738 21.5579 81.0645 21.1672V21.7141C80.3353 22.6907 79.6387 23.179 78.9746 23.179C78.6556 23.179 78.4017 23.0683 78.2129 22.8469C78.0241 22.6256 77.9264 22.248 77.9199 21.7141ZM77.9199 21.0793V17.6711C76.9368 18.0618 76.3021 18.3385 76.0156 18.5012C75.5013 18.7877 75.1335 19.0872 74.9121 19.3997C74.6908 19.7122 74.5801 20.054 74.5801 20.425C74.5801 20.8938 74.7201 21.2844 75 21.5969C75.2799 21.9029 75.6022 22.0559 75.9668 22.0559C76.4616 22.0559 77.1126 21.7304 77.9199 21.0793ZM81.2402 14.0579H84.9902V14.4192C84.6452 14.4452 84.4173 14.5071 84.3066 14.6047C84.2025 14.7024 84.1504 14.8424 84.1504 15.0247C84.1504 15.2265 84.2057 15.4706 84.3164 15.7571L86.2305 20.9036L88.1543 16.7141L87.6465 15.3958C87.4902 15.0051 87.2852 14.7349 87.0312 14.5852C86.888 14.4941 86.6211 14.4387 86.2305 14.4192V14.0579H90.4883V14.4192C90.0195 14.4387 89.6875 14.5234 89.4922 14.6731C89.362 14.7773 89.2969 14.9433 89.2969 15.1711C89.2969 15.3014 89.3229 15.4348 89.375 15.5715L91.4062 20.7083L93.291 15.7571C93.4212 15.4055 93.4863 15.1256 93.4863 14.9172C93.4863 14.7935 93.4212 14.6829 93.291 14.5852C93.1673 14.4875 92.9199 14.4322 92.5488 14.4192V14.0579H95.3711V14.4192C94.8047 14.5038 94.388 14.8879 94.1211 15.5715L91.1328 23.2766H90.7324L88.4961 17.5637L85.8887 23.2766H85.5273L82.6562 15.7571C82.4674 15.2818 82.2819 14.9628 82.0996 14.8C81.9173 14.6308 81.6309 14.5038 81.2402 14.4192V14.0579ZM104.658 10.4836V15.6887H107.07C107.624 15.6887 108.027 15.5683 108.281 15.3274C108.542 15.08 108.714 14.595 108.799 13.8723H109.16V18.3547H108.799C108.792 17.8404 108.724 17.4628 108.594 17.2219C108.47 16.981 108.294 16.802 108.066 16.6848C107.845 16.5611 107.513 16.4993 107.07 16.4993H104.658V20.6594C104.658 21.33 104.701 21.7727 104.785 21.9875C104.85 22.1503 104.987 22.2903 105.195 22.4075C105.482 22.5637 105.781 22.6418 106.094 22.6418H106.572V23.0032H100.889V22.6418H101.357C101.904 22.6418 102.301 22.4823 102.549 22.1633C102.705 21.955 102.783 21.4537 102.783 20.6594V12.1047C102.783 11.4342 102.741 10.9915 102.656 10.7766C102.591 10.6139 102.458 10.4739 102.256 10.3567C101.976 10.2004 101.676 10.1223 101.357 10.1223H100.889V9.76099H110.742L110.869 12.6711H110.527C110.358 12.0527 110.16 11.6002 109.932 11.3137C109.71 11.0208 109.434 10.8092 109.102 10.679C108.776 10.5487 108.268 10.4836 107.578 10.4836H104.658ZM114.6 9.11646C114.873 9.11646 115.104 9.21411 115.293 9.40942C115.488 9.59823 115.586 9.82935 115.586 10.1028C115.586 10.3762 115.488 10.6106 115.293 10.8059C115.104 11.0012 114.873 11.0989 114.6 11.0989C114.326 11.0989 114.092 11.0012 113.896 10.8059C113.701 10.6106 113.604 10.3762 113.604 10.1028C113.604 9.82935 113.698 9.59823 113.887 9.40942C114.082 9.21411 114.32 9.11646 114.6 9.11646ZM115.41 13.7942V20.9817C115.41 21.5416 115.449 21.9159 115.527 22.1047C115.612 22.287 115.732 22.4237 115.889 22.5149C116.051 22.606 116.344 22.6516 116.768 22.6516V23.0032H112.422V22.6516C112.858 22.6516 113.151 22.6093 113.301 22.5247C113.451 22.44 113.568 22.3 113.652 22.1047C113.743 21.9094 113.789 21.5351 113.789 20.9817V17.5344C113.789 16.5644 113.76 15.9361 113.701 15.6497C113.656 15.4413 113.584 15.2981 113.486 15.22C113.389 15.1353 113.255 15.093 113.086 15.093C112.904 15.093 112.682 15.1418 112.422 15.2395L112.285 14.8879L114.98 13.7942H115.41ZM120.508 13.7942V15.8059C121.257 14.4648 122.025 13.7942 122.812 13.7942C123.171 13.7942 123.467 13.9049 123.701 14.1262C123.936 14.3411 124.053 14.5917 124.053 14.8782C124.053 15.1321 123.968 15.3469 123.799 15.5227C123.63 15.6985 123.428 15.7864 123.193 15.7864C122.965 15.7864 122.708 15.6757 122.422 15.4543C122.142 15.2265 121.934 15.1125 121.797 15.1125C121.68 15.1125 121.553 15.1777 121.416 15.3079C121.123 15.5748 120.82 16.0142 120.508 16.6262V20.9133C120.508 21.4081 120.57 21.7825 120.693 22.0364C120.778 22.2122 120.928 22.3586 121.143 22.4758C121.357 22.593 121.667 22.6516 122.07 22.6516V23.0032H117.49V22.6516C117.946 22.6516 118.285 22.58 118.506 22.4368C118.669 22.3326 118.783 22.1666 118.848 21.9387C118.88 21.828 118.896 21.5123 118.896 20.9915V17.5247C118.896 16.483 118.874 15.8645 118.828 15.6692C118.789 15.4674 118.711 15.3209 118.594 15.2297C118.483 15.1386 118.343 15.093 118.174 15.093C117.972 15.093 117.744 15.1418 117.49 15.2395L117.393 14.8879L120.098 13.7942H120.508ZM127.207 15.6985C127.858 15.0474 128.242 14.6731 128.359 14.5754C128.652 14.328 128.968 14.136 129.307 13.9993C129.645 13.8625 129.98 13.7942 130.312 13.7942C130.872 13.7942 131.354 13.9569 131.758 14.2825C132.161 14.608 132.432 15.08 132.568 15.6985C133.239 14.9172 133.805 14.4062 134.268 14.1653C134.73 13.9179 135.205 13.7942 135.693 13.7942C136.169 13.7942 136.589 13.9179 136.953 14.1653C137.324 14.4062 137.617 14.8033 137.832 15.3567C137.975 15.7343 138.047 16.3267 138.047 17.134V20.9817C138.047 21.5416 138.089 21.9257 138.174 22.134C138.239 22.2773 138.359 22.401 138.535 22.5051C138.711 22.6028 138.997 22.6516 139.395 22.6516V23.0032H134.98V22.6516H135.166C135.55 22.6516 135.85 22.5767 136.064 22.427C136.214 22.3228 136.322 22.1568 136.387 21.929C136.413 21.8183 136.426 21.5025 136.426 20.9817V17.134C136.426 16.4049 136.338 15.8905 136.162 15.5911C135.908 15.1744 135.501 14.9661 134.941 14.9661C134.596 14.9661 134.248 15.054 133.896 15.2297C133.551 15.399 133.132 15.718 132.637 16.1868L132.617 16.2942L132.637 16.7141V20.9817C132.637 21.5937 132.669 21.9745 132.734 22.1243C132.806 22.274 132.936 22.401 133.125 22.5051C133.314 22.6028 133.636 22.6516 134.092 22.6516V23.0032H129.57V22.6516C130.065 22.6516 130.404 22.593 130.586 22.4758C130.775 22.3586 130.905 22.1829 130.977 21.9485C131.009 21.8378 131.025 21.5155 131.025 20.9817V17.134C131.025 16.4049 130.918 15.8808 130.703 15.5618C130.417 15.1451 130.016 14.9368 129.502 14.9368C129.15 14.9368 128.802 15.0312 128.457 15.22C127.917 15.5064 127.5 15.8287 127.207 16.1868V20.9817C127.207 21.5676 127.246 21.9485 127.324 22.1243C127.409 22.3 127.529 22.4335 127.686 22.5247C127.848 22.6093 128.174 22.6516 128.662 22.6516V23.0032H124.238V22.6516C124.648 22.6516 124.935 22.6093 125.098 22.5247C125.26 22.4335 125.384 22.2935 125.469 22.1047C125.553 21.9094 125.596 21.5351 125.596 20.9817V17.5637C125.596 16.5806 125.566 15.9459 125.508 15.6594C125.462 15.4446 125.391 15.2981 125.293 15.22C125.195 15.1353 125.062 15.093 124.893 15.093C124.71 15.093 124.492 15.1418 124.238 15.2395L124.092 14.8879L126.787 13.7942H127.207V15.6985Z" fill="#1E3A5F"/>
<path d="M60.8789 42.0032V33.4133H62.0156V40.9895H66.2461V42.0032H60.8789ZM71.7305 39.9993L72.8203 40.134C72.6484 40.7708 72.3301 41.2649 71.8652 41.6165C71.4004 41.968 70.8066 42.1438 70.084 42.1438C69.1738 42.1438 68.4512 41.8645 67.916 41.3059C67.3848 40.7434 67.1191 39.9563 67.1191 38.9446C67.1191 37.8977 67.3887 37.0852 67.9277 36.5071C68.4668 35.929 69.166 35.6399 70.0254 35.6399C70.8574 35.6399 71.5371 35.9231 72.0645 36.4895C72.5918 37.0559 72.8555 37.8528 72.8555 38.8801C72.8555 38.9426 72.8535 39.0364 72.8496 39.1614H68.209C68.248 39.845 68.4414 40.3684 68.7891 40.7317C69.1367 41.095 69.5703 41.2766 70.0898 41.2766C70.4766 41.2766 70.8066 41.175 71.0801 40.9719C71.3535 40.7688 71.5703 40.4446 71.7305 39.9993ZM68.2676 38.2942H71.7422C71.6953 37.7708 71.5625 37.3782 71.3438 37.1165C71.0078 36.7102 70.5723 36.5071 70.0371 36.5071C69.5527 36.5071 69.1445 36.6692 68.8125 36.9934C68.4844 37.3176 68.3027 37.7512 68.2676 38.2942ZM73.957 42.5188L74.9824 42.6711C75.0254 42.9875 75.1445 43.218 75.3398 43.3625C75.6016 43.5579 75.959 43.6555 76.4121 43.6555C76.9004 43.6555 77.2773 43.5579 77.543 43.3625C77.8086 43.1672 77.9883 42.8938 78.082 42.5422C78.1367 42.3274 78.1621 41.8762 78.1582 41.1887C77.6973 41.7317 77.123 42.0032 76.4355 42.0032C75.5801 42.0032 74.918 41.6946 74.4492 41.0774C73.9805 40.4602 73.7461 39.72 73.7461 38.8567C73.7461 38.2629 73.8535 37.7161 74.0684 37.2161C74.2832 36.7122 74.5938 36.3235 75 36.05C75.4102 35.7766 75.8906 35.6399 76.4414 35.6399C77.1758 35.6399 77.7812 35.9368 78.2578 36.5305V35.7805H79.2305V41.1594C79.2305 42.1282 79.1309 42.8137 78.9316 43.2161C78.7363 43.6223 78.4238 43.9426 77.9941 44.177C77.5684 44.4114 77.043 44.5286 76.418 44.5286C75.6758 44.5286 75.0762 44.3606 74.6191 44.0247C74.1621 43.6926 73.9414 43.1907 73.957 42.5188ZM74.8301 38.7805C74.8301 39.5969 74.9922 40.1926 75.3164 40.5676C75.6406 40.9426 76.0469 41.1301 76.5352 41.1301C77.0195 41.1301 77.4258 40.9446 77.7539 40.5735C78.082 40.1985 78.2461 39.6125 78.2461 38.8157C78.2461 38.054 78.0762 37.4797 77.7363 37.093C77.4004 36.7063 76.9941 36.5129 76.5176 36.5129C76.0488 36.5129 75.6504 36.7043 75.3223 37.0872C74.9941 37.4661 74.8301 38.0305 74.8301 38.7805ZM84.8906 41.2356C84.5 41.5676 84.123 41.802 83.7598 41.9387C83.4004 42.0754 83.0137 42.1438 82.5996 42.1438C81.916 42.1438 81.3906 41.9778 81.0234 41.6458C80.6562 41.3098 80.4727 40.8821 80.4727 40.3625C80.4727 40.0579 80.541 39.7805 80.6777 39.5305C80.8184 39.2766 81 39.0735 81.2227 38.9211C81.4492 38.7688 81.7031 38.6536 81.9844 38.5754C82.1914 38.5208 82.5039 38.468 82.9219 38.4172C83.7734 38.3157 84.4004 38.1946 84.8027 38.054C84.8066 37.9094 84.8086 37.8176 84.8086 37.7786C84.8086 37.3489 84.709 37.0461 84.5098 36.8704C84.2402 36.6321 83.8398 36.5129 83.3086 36.5129C82.8125 36.5129 82.4453 36.6008 82.207 36.7766C81.9727 36.9485 81.7988 37.2551 81.6855 37.6965L80.6543 37.5559C80.748 37.1145 80.9023 36.759 81.1172 36.4895C81.332 36.2161 81.6426 36.0071 82.0488 35.8625C82.4551 35.7141 82.9258 35.6399 83.4609 35.6399C83.9922 35.6399 84.4238 35.7024 84.7559 35.8274C85.0879 35.9524 85.332 36.1106 85.4883 36.302C85.6445 36.4895 85.7539 36.7278 85.8164 37.0168C85.8516 37.1965 85.8691 37.5208 85.8691 37.9895V39.3958C85.8691 40.3762 85.8906 40.9973 85.9336 41.259C85.9805 41.5168 86.0703 41.7649 86.2031 42.0032H85.1016C84.9922 41.7844 84.9219 41.5286 84.8906 41.2356ZM84.8027 38.8801C84.4199 39.0364 83.8457 39.1692 83.0801 39.2786C82.6465 39.3411 82.3398 39.4114 82.1602 39.4895C81.9805 39.5676 81.8418 39.6829 81.7441 39.8352C81.6465 39.9836 81.5977 40.1497 81.5977 40.3333C81.5977 40.6145 81.7031 40.8489 81.9141 41.0364C82.1289 41.2239 82.4414 41.3176 82.8516 41.3176C83.2578 41.3176 83.6191 41.2297 83.9355 41.054C84.252 40.8743 84.4844 40.6301 84.6328 40.3215C84.7461 40.0833 84.8027 39.7317 84.8027 39.2668V38.8801ZM87.4863 42.0032V33.4133H88.541V42.0032H87.4863ZM93.6797 42.0032V33.4133H99.8906V34.427H94.8164V37.0579H99.5684V38.0657H94.8164V40.9895H100.09V42.0032H93.6797ZM100.822 42.0032L103.096 38.7688L100.992 35.7805H102.311L103.266 37.2395C103.445 37.5168 103.59 37.7493 103.699 37.9368C103.871 37.679 104.029 37.4504 104.174 37.2512L105.223 35.7805H106.482L104.332 38.7102L106.646 42.0032H105.352L104.074 40.0696L103.734 39.5481L102.1 42.0032H100.822ZM111.586 39.7239L112.623 39.8586C112.51 40.5735 112.219 41.134 111.75 41.5403C111.285 41.9426 110.713 42.1438 110.033 42.1438C109.182 42.1438 108.496 41.8665 107.977 41.3118C107.461 40.7532 107.203 39.9543 107.203 38.9153C107.203 38.2434 107.314 37.6555 107.537 37.1516C107.76 36.6477 108.098 36.2708 108.551 36.0208C109.008 35.7668 109.504 35.6399 110.039 35.6399C110.715 35.6399 111.268 35.8118 111.697 36.1555C112.127 36.4954 112.402 36.9797 112.523 37.6086L111.498 37.7668C111.4 37.3489 111.227 37.0344 110.977 36.8235C110.73 36.6125 110.432 36.5071 110.08 36.5071C109.549 36.5071 109.117 36.6985 108.785 37.0813C108.453 37.4602 108.287 38.0618 108.287 38.886C108.287 39.7219 108.447 40.3293 108.768 40.7083C109.088 41.0872 109.506 41.2766 110.021 41.2766C110.436 41.2766 110.781 41.1497 111.059 40.8958C111.336 40.6418 111.512 40.2512 111.586 39.7239ZM117.785 39.9993L118.875 40.134C118.703 40.7708 118.385 41.2649 117.92 41.6165C117.455 41.968 116.861 42.1438 116.139 42.1438C115.229 42.1438 114.506 41.8645 113.971 41.3059C113.439 40.7434 113.174 39.9563 113.174 38.9446C113.174 37.8977 113.443 37.0852 113.982 36.5071C114.521 35.929 115.221 35.6399 116.08 35.6399C116.912 35.6399 117.592 35.9231 118.119 36.4895C118.646 37.0559 118.91 37.8528 118.91 38.8801C118.91 38.9426 118.908 39.0364 118.904 39.1614H114.264C114.303 39.845 114.496 40.3684 114.844 40.7317C115.191 41.095 115.625 41.2766 116.145 41.2766C116.531 41.2766 116.861 41.175 117.135 40.9719C117.408 40.7688 117.625 40.4446 117.785 39.9993ZM114.322 38.2942H117.797C117.75 37.7708 117.617 37.3782 117.398 37.1165C117.062 36.7102 116.627 36.5071 116.092 36.5071C115.607 36.5071 115.199 36.6692 114.867 36.9934C114.539 37.3176 114.357 37.7512 114.322 38.2942ZM120.182 42.0032V33.4133H121.236V42.0032H120.182ZM122.854 42.0032V33.4133H123.908V42.0032H122.854ZM129.809 39.9993L130.898 40.134C130.727 40.7708 130.408 41.2649 129.943 41.6165C129.479 41.968 128.885 42.1438 128.162 42.1438C127.252 42.1438 126.529 41.8645 125.994 41.3059C125.463 40.7434 125.197 39.9563 125.197 38.9446C125.197 37.8977 125.467 37.0852 126.006 36.5071C126.545 35.929 127.244 35.6399 128.104 35.6399C128.936 35.6399 129.615 35.9231 130.143 36.4895C130.67 37.0559 130.934 37.8528 130.934 38.8801C130.934 38.9426 130.932 39.0364 130.928 39.1614H126.287C126.326 39.845 126.52 40.3684 126.867 40.7317C127.215 41.095 127.648 41.2766 128.168 41.2766C128.555 41.2766 128.885 41.175 129.158 40.9719C129.432 40.7688 129.648 40.4446 129.809 39.9993ZM126.346 38.2942H129.82C129.773 37.7708 129.641 37.3782 129.422 37.1165C129.086 36.7102 128.65 36.5071 128.115 36.5071C127.631 36.5071 127.223 36.6692 126.891 36.9934C126.562 37.3176 126.381 37.7512 126.346 38.2942ZM132.229 42.0032V35.7805H133.178V36.6653C133.635 35.9817 134.295 35.6399 135.158 35.6399C135.533 35.6399 135.877 35.7083 136.189 35.845C136.506 35.9778 136.742 36.1536 136.898 36.3723C137.055 36.5911 137.164 36.8508 137.227 37.1516C137.266 37.3469 137.285 37.6887 137.285 38.177V42.0032H136.23V38.218C136.23 37.7883 136.189 37.468 136.107 37.2571C136.025 37.0422 135.879 36.8723 135.668 36.7473C135.461 36.6184 135.217 36.554 134.936 36.554C134.486 36.554 134.098 36.6965 133.77 36.9817C133.445 37.2668 133.283 37.8079 133.283 38.6047V42.0032H132.229ZM142.969 39.7239L144.006 39.8586C143.893 40.5735 143.602 41.134 143.133 41.5403C142.668 41.9426 142.096 42.1438 141.416 42.1438C140.564 42.1438 139.879 41.8665 139.359 41.3118C138.844 40.7532 138.586 39.9543 138.586 38.9153C138.586 38.2434 138.697 37.6555 138.92 37.1516C139.143 36.6477 139.48 36.2708 139.934 36.0208C140.391 35.7668 140.887 35.6399 141.422 35.6399C142.098 35.6399 142.65 35.8118 143.08 36.1555C143.51 36.4954 143.785 36.9797 143.906 37.6086L142.881 37.7668C142.783 37.3489 142.609 37.0344 142.359 36.8235C142.113 36.6125 141.814 36.5071 141.463 36.5071C140.932 36.5071 140.5 36.6985 140.168 37.0813C139.836 37.4602 139.67 38.0618 139.67 38.886C139.67 39.7219 139.83 40.3293 140.15 40.7083C140.471 41.0872 140.889 41.2766 141.404 41.2766C141.818 41.2766 142.164 41.1497 142.441 40.8958C142.719 40.6418 142.895 40.2512 142.969 39.7239ZM149.168 39.9993L150.258 40.134C150.086 40.7708 149.768 41.2649 149.303 41.6165C148.838 41.968 148.244 42.1438 147.521 42.1438C146.611 42.1438 145.889 41.8645 145.354 41.3059C144.822 40.7434 144.557 39.9563 144.557 38.9446C144.557 37.8977 144.826 37.0852 145.365 36.5071C145.904 35.929 146.604 35.6399 147.463 35.6399C148.295 35.6399 148.975 35.9231 149.502 36.4895C150.029 37.0559 150.293 37.8528 150.293 38.8801C150.293 38.9426 150.291 39.0364 150.287 39.1614H145.646C145.686 39.845 145.879 40.3684 146.227 40.7317C146.574 41.095 147.008 41.2766 147.527 41.2766C147.914 41.2766 148.244 41.175 148.518 40.9719C148.791 40.7688 149.008 40.4446 149.168 39.9993ZM145.705 38.2942H149.18C149.133 37.7708 149 37.3782 148.781 37.1165C148.445 36.7102 148.01 36.5071 147.475 36.5071C146.99 36.5071 146.582 36.6692 146.25 36.9934C145.922 37.3176 145.74 37.7512 145.705 38.2942Z" fill="#4A5565"/>
</svg>
