<svg width="64" height="64" viewBox="0 0 64 64" fill="none" xmlns="http://www.w3.org/2000/svg">
<path d="M0 32C0 14.3269 14.3269 0 32 0C49.6731 0 64 14.3269 64 32C64 49.6731 49.6731 64 32 64C14.3269 64 0 49.6731 0 32Z" fill="white" fill-opacity="0.2"/>
<path d="M32 45.3333C39.3638 45.3333 45.3333 39.3638 45.3333 32C45.3333 24.6362 39.3638 18.6666 32 18.6666C24.6362 18.6666 18.6666 24.6362 18.6666 32C18.6666 39.3638 24.6362 45.3333 32 45.3333Z" stroke="white" stroke-width="2.66667" stroke-linecap="round" stroke-linejoin="round"/>
<path d="M32 40C36.4183 40 40 36.4183 40 32C40 27.5817 36.4183 24 32 24C27.5817 24 24 27.5817 24 32C24 36.4183 27.5817 40 32 40Z" stroke="white" stroke-width="2.66667" stroke-linecap="round" stroke-linejoin="round"/>
<path d="M32 34.6667C33.4728 34.6667 34.6667 33.4728 34.6667 32C34.6667 30.5273 33.4728 29.3334 32 29.3334C30.5273 29.3334 29.3334 30.5273 29.3334 32C29.3334 33.4728 30.5273 34.6667 32 34.6667Z" stroke="white" stroke-width="2.66667" stroke-linecap="round" stroke-linejoin="round"/>
</svg>
