<svg width="64" height="64" viewBox="0 0 64 64" fill="none" xmlns="http://www.w3.org/2000/svg">
<path d="M0 32C0 14.3269 14.3269 0 32 0C49.6731 0 64 14.3269 64 32C64 49.6731 49.6731 64 32 64C14.3269 64 0 49.6731 0 32Z" fill="white" fill-opacity="0.2"/>
<path d="M18.7494 32.464C18.6382 32.1646 18.6382 31.8353 18.7494 31.536C19.8316 28.9118 21.6687 26.668 24.0277 25.0892C26.3867 23.5103 29.1614 22.6675 32 22.6675C34.8386 22.6675 37.6133 23.5103 39.9723 25.0892C42.3313 26.668 44.1684 28.9118 45.2507 31.536C45.3618 31.8353 45.3618 32.1646 45.2507 32.464C44.1684 35.0882 42.3313 37.3319 39.9723 38.9108C37.6133 40.4897 34.8386 41.3325 32 41.3325C29.1614 41.3325 26.3867 40.4897 24.0277 38.9108C21.6687 37.3319 19.8316 35.0882 18.7494 32.464Z" stroke="white" stroke-width="2.66667" stroke-linecap="round" stroke-linejoin="round"/>
<path d="M32 36C34.2091 36 36 34.2091 36 32C36 29.7909 34.2091 28 32 28C29.7909 28 28 29.7909 28 32C28 34.2091 29.7909 36 32 36Z" stroke="white" stroke-width="2.66667" stroke-linecap="round" stroke-linejoin="round"/>
</svg>
